<svg width="200" height="200" viewBox="0 0 200 200" fill="none" xmlns="http://www.w3.org/2000/svg">
<path d="M123.869 74.7695H113.825C113.847 74.75 113.881 74.7417 113.9 74.7194C114.425 74.1917 114.736 73.4694 114.736 72.7472C114.731 72.0102 114.441 71.3038 113.928 70.775C112.903 69.7472 111.014 69.7472 109.983 70.775C109.483 71.275 109.181 71.9944 109.181 72.7472C109.181 73.4694 109.458 74.1917 109.983 74.7194C110.119 74.8556 110.303 74.9361 110.469 75.0389C109.893 75.3006 109.423 75.7524 109.139 76.3188C108.855 76.8852 108.774 77.5318 108.91 78.1506C109.046 78.7694 109.389 79.3229 109.884 79.7187C110.379 80.1145 110.994 80.3285 111.628 80.325H123.869C125.642 80.325 126.906 81.1333 127.439 82.2306C128.103 83.5917 127.644 85.7528 126.194 87.6083L105.186 116.261C102.419 119.794 97.7167 119.381 94.8584 115.733L73.7639 87.7139C72.3584 85.9222 71.9028 83.7333 72.6028 82.2917C73.1528 81.1611 74.4084 80.325 76.1417 80.325H86.6222C88.1556 80.325 89.9472 79.5056 89.9472 77.9695V69.2028C89.9472 63.1139 94.4084 57.7694 99.7861 57.7694C103.089 57.7694 107.142 58.7222 108.919 63.2667C109.481 64.6917 111.122 65.4056 112.558 64.8417C113.992 64.2833 114.761 62.6722 114.203 61.2417C111.961 55.5056 106.792 52.2139 99.775 52.2139C91.2917 52.2139 84.3972 59.9944 84.3972 69.2028V74.7695H76.1417C72.225 74.7695 69.1167 76.7611 67.6084 79.8611C65.9584 83.25 66.6417 87.7472 69.3611 91.2083L90.4556 119.169C93.0584 122.486 96.6917 124.389 100.428 124.389C103.95 124.389 107.194 122.681 109.617 119.594L130.625 90.8722C133.344 87.4 134.039 83.0945 132.433 79.8C130.947 76.7389 127.822 74.7695 123.869 74.7695Z" fill="#DB2777"/>
<path d="M100 9.77222C50.25 9.77222 9.77222 50.2472 9.77222 100C9.77222 149.75 50.25 190.228 100 190.228C149.75 190.228 190.228 149.75 190.228 100C190.228 50.2472 149.75 9.77222 100 9.77222ZM100 179.117C56.375 179.117 20.8833 143.625 20.8833 100C20.8833 56.375 56.375 20.8833 100 20.8833C143.625 20.8833 179.117 56.375 179.117 100C179.117 143.625 143.625 179.117 100 179.117Z" fill="#DB2777"/>
<path d="M118.461 32.6083C117.75 32.415 116.992 32.5114 116.352 32.8764C115.712 33.2414 115.243 33.8453 115.047 34.5556C114.644 36.0389 115.519 37.5639 116.994 37.9694C144.85 45.5833 164.3 71.0917 164.3 100C164.3 100.737 164.593 101.443 165.114 101.964C165.635 102.485 166.341 102.778 167.078 102.778C167.814 102.778 168.521 102.485 169.042 101.964C169.563 101.443 169.856 100.737 169.856 100C169.856 68.5944 148.725 40.8833 118.461 32.6083ZM100.003 35.6972C101.253 35.6965 102.502 35.7307 103.75 35.8C104.469 35.7932 105.158 35.5075 105.671 35.0032C106.184 34.4988 106.481 33.8151 106.5 33.096C106.519 32.3769 106.259 31.6784 105.773 31.1475C105.288 30.6167 104.615 30.295 103.897 30.25C102.601 30.179 101.304 30.1429 100.006 30.1417C99.2688 30.1413 98.5621 30.4336 98.041 30.9543C97.5198 31.4749 97.2267 32.1813 97.2264 32.9181C97.226 33.6548 97.5183 34.3614 98.039 34.8826C98.5597 35.4038 99.2661 35.6968 100.003 35.6972Z" fill="#DB2777"/>
<path d="M72.5235 166.046C70.9688 165.905 69.9265 165.534 69.3965 164.933C68.8665 164.297 68.6015 163.643 68.6015 162.972C68.6015 162.548 68.6898 162.071 68.8665 161.541C69.0431 161.011 69.2198 160.64 69.3965 160.428C71.0571 158.379 74.1665 154.775 78.7245 149.616C83.2825 144.457 86.3388 141.012 87.8935 139.281L85.8265 139.175C83.9538 139.069 82.3815 139.016 81.1095 139.016C80.6501 139.016 79.4841 139.104 77.6115 139.281C76.4455 139.458 75.3855 139.546 74.4315 139.546C73.0535 139.546 72.0465 139.422 71.4105 139.175C70.8098 138.892 70.4388 138.574 70.2975 138.221C70.1915 137.868 70.1385 137.373 70.1385 136.737C70.1385 136.278 70.3151 135.818 70.6685 135.359C71.0571 134.864 71.5165 134.582 72.0465 134.511C73.4598 134.334 75.3501 134.175 77.7175 134.034C80.0848 133.857 82.0105 133.769 83.4945 133.769C87.9818 133.769 91.1441 133.999 92.9815 134.458C93.4408 134.599 93.8295 134.953 94.1475 135.518C94.4655 136.083 94.6245 136.525 94.6245 136.843C94.6245 137.267 94.5538 137.709 94.4125 138.168C94.3065 138.627 94.1475 139.016 93.9355 139.334C93.4761 140.147 92.4161 141.631 90.7555 143.786C89.0948 145.906 87.3281 148.044 85.4555 150.199C83.4768 152.531 81.4451 154.845 79.3605 157.142C77.3111 159.439 75.9861 160.905 75.3855 161.541C76.3748 161.506 77.8941 161.417 79.9435 161.276C83.2648 161.064 85.7558 160.958 87.4165 160.958C88.7238 160.958 90.1725 161.046 91.7625 161.223C93.3878 161.4 94.6068 161.753 95.4195 162.283C95.6668 162.424 95.8965 162.831 96.1085 163.502C96.3558 164.173 96.4795 164.721 96.4795 165.145C96.4795 165.604 96.2498 166.011 95.7905 166.364C95.3665 166.717 94.7658 166.894 93.9885 166.894C93.9178 166.894 93.1405 166.823 91.6565 166.682C88.5825 166.329 86.5508 166.152 85.5615 166.152L81.7985 166.205C80.1025 166.276 78.8128 166.311 77.9295 166.311C75.7741 166.311 73.9721 166.223 72.5235 166.046ZM124.428 148.026C124.393 147.461 124.375 146.613 124.375 145.482V143.468C124.375 142.125 124.34 141.118 124.269 140.447C124.199 139.882 124.163 138.415 124.163 136.048C124.163 135.2 124.411 134.546 124.905 134.087C125.435 133.592 126.142 133.345 127.025 133.345C128.156 133.345 128.916 133.592 129.304 134.087C129.693 134.582 129.887 135.394 129.887 136.525V138.539L129.834 144.369C129.799 145.5 129.781 147.196 129.781 149.457L129.834 153.803C129.87 154.474 129.887 155.411 129.887 156.612C129.887 157.566 129.923 158.926 129.993 160.693C130.064 162.318 130.099 163.537 130.099 164.35C130.099 165.021 129.905 165.64 129.516 166.205C129.163 166.77 128.668 167.053 128.032 167.053C125.559 167.053 124.322 166.223 124.322 164.562C124.322 163.643 124.358 162.619 124.428 161.488C124.499 160.675 124.534 159.439 124.534 157.778C124.534 156.612 124.499 154.934 124.428 152.743C122.768 152.884 119.906 152.955 115.842 152.955C113.298 152.955 111.32 152.955 109.906 152.955C108.493 152.92 107.468 152.831 106.832 152.69L106.779 158.785C106.779 159.174 106.868 160.216 107.044 161.912C107.221 163.043 107.309 164.032 107.309 164.88C107.309 165.41 106.991 165.922 106.355 166.417C105.755 166.876 105.189 167.106 104.659 167.106C103.387 167.106 102.522 166.806 102.062 166.205C101.603 165.569 101.373 164.615 101.373 163.343L101.32 159.156C101.285 158.661 101.267 157.972 101.267 157.089C101.267 155.782 101.232 153.997 101.161 151.736C101.091 149.687 101.055 148.203 101.055 147.284C101.055 145.906 101.091 143.98 101.161 141.507C101.232 139.175 101.267 137.444 101.267 136.313C101.267 135.182 101.55 134.423 102.115 134.034C102.681 133.645 103.317 133.451 104.023 133.451C106.002 133.451 106.991 134.105 106.991 135.412C106.991 137.744 106.938 139.97 106.832 142.09C106.762 144.775 106.726 146.736 106.726 147.973C107.751 148.22 108.829 148.379 109.959 148.45C111.09 148.521 112.68 148.556 114.729 148.556C118.899 148.556 122.132 148.379 124.428 148.026Z" fill="#DB2777"/>
</svg>
