<svg width="200" height="200" viewBox="0 0 200 200" fill="none" xmlns="http://www.w3.org/2000/svg">
<path d="M123.869 74.7695H113.825C113.847 74.75 113.881 74.7417 113.9 74.7194C114.425 74.1917 114.736 73.4694 114.736 72.7472C114.731 72.0102 114.441 71.3038 113.928 70.775C112.903 69.7472 111.014 69.7472 109.983 70.775C109.483 71.275 109.181 71.9944 109.181 72.7472C109.181 73.4694 109.458 74.1917 109.983 74.7194C110.119 74.8556 110.303 74.9361 110.469 75.0389C109.893 75.3006 109.423 75.7524 109.139 76.3188C108.855 76.8852 108.774 77.5318 108.91 78.1506C109.046 78.7694 109.389 79.3229 109.884 79.7187C110.379 80.1145 110.994 80.3285 111.628 80.325H123.869C125.642 80.325 126.906 81.1333 127.439 82.2306C128.103 83.5917 127.644 85.7528 126.194 87.6083L105.186 116.261C102.419 119.794 97.7167 119.381 94.8584 115.733L73.7639 87.7139C72.3584 85.9222 71.9028 83.7333 72.6028 82.2917C73.1528 81.1611 74.4084 80.325 76.1417 80.325H86.6222C88.1556 80.325 89.9472 79.5056 89.9472 77.9695V69.2028C89.9472 63.1139 94.4084 57.7694 99.7861 57.7694C103.089 57.7694 107.142 58.7222 108.919 63.2667C109.481 64.6917 111.122 65.4056 112.558 64.8417C113.992 64.2833 114.761 62.6722 114.203 61.2417C111.961 55.5056 106.792 52.2139 99.775 52.2139C91.2917 52.2139 84.3972 59.9944 84.3972 69.2028V74.7695H76.1417C72.225 74.7695 69.1167 76.7611 67.6084 79.8611C65.9584 83.25 66.6417 87.7472 69.3611 91.2083L90.4556 119.169C93.0584 122.486 96.6917 124.389 100.428 124.389C103.95 124.389 107.194 122.681 109.617 119.594L130.625 90.8722C133.344 87.4 134.039 83.0945 132.433 79.8C130.947 76.7389 127.822 74.7695 123.869 74.7695Z" fill="#DB2777"/>
<path d="M100 9.77222C50.25 9.77222 9.77222 50.2472 9.77222 100C9.77222 149.75 50.25 190.228 100 190.228C149.75 190.228 190.228 149.75 190.228 100C190.228 50.2472 149.75 9.77222 100 9.77222ZM100 179.117C56.375 179.117 20.8833 143.625 20.8833 100C20.8833 56.375 56.375 20.8833 100 20.8833C143.625 20.8833 179.117 56.375 179.117 100C179.117 143.625 143.625 179.117 100 179.117Z" fill="#DB2777"/>
<path d="M118.461 32.6083C117.75 32.415 116.992 32.5114 116.352 32.8764C115.712 33.2414 115.243 33.8453 115.047 34.5556C114.644 36.0389 115.519 37.5639 116.994 37.9694C144.85 45.5833 164.3 71.0917 164.3 100C164.3 100.737 164.593 101.443 165.114 101.964C165.635 102.485 166.341 102.778 167.078 102.778C167.814 102.778 168.521 102.485 169.042 101.964C169.563 101.443 169.856 100.737 169.856 100C169.856 68.5944 148.725 40.8833 118.461 32.6083ZM100.003 35.6972C101.253 35.6965 102.502 35.7307 103.75 35.8C104.469 35.7932 105.158 35.5075 105.671 35.0032C106.184 34.4988 106.481 33.8151 106.5 33.096C106.519 32.3769 106.259 31.6784 105.773 31.1475C105.288 30.6167 104.615 30.295 103.897 30.25C102.601 30.179 101.304 30.1429 100.006 30.1417C99.2688 30.1413 98.5621 30.4336 98.041 30.9543C97.5198 31.4749 97.2267 32.1813 97.2264 32.9181C97.226 33.6548 97.5183 34.3614 98.039 34.8826C98.5597 35.4038 99.2661 35.6968 100.003 35.6972Z" fill="#DB2777"/>
<path d="M93.5421 159.792C94.2134 159.792 94.7081 160.057 95.0261 160.587C95.3794 161.082 95.5561 161.629 95.5561 162.23C95.5561 162.972 95.4324 163.502 95.1851 163.82C94.9731 164.103 94.5491 164.403 93.9131 164.721C92.4291 165.428 90.5918 165.993 88.4011 166.417C86.2104 166.841 83.8608 167.053 81.3521 167.053C78.2074 167.053 75.8931 166.523 74.4091 165.463C72.9604 164.403 72.0594 163.131 71.7061 161.647C71.3881 160.128 71.2291 158.149 71.2291 155.711C71.2291 153.096 71.3351 150.535 71.5471 148.026C71.7591 145.482 72.1301 142.249 72.6601 138.327C72.9074 136.631 73.5788 135.412 74.6741 134.67C75.7694 133.893 76.9708 133.504 78.2781 133.504C79.3734 133.504 81.1578 133.469 83.6311 133.398L88.2421 133.345C90.1501 133.345 91.5281 133.398 92.3761 133.504C93.4361 133.716 94.2134 133.963 94.7081 134.246C95.2381 134.493 95.5031 134.935 95.5031 135.571C95.5031 136.278 95.2558 136.967 94.7611 137.638C94.3018 138.309 93.5951 138.645 92.6411 138.645C91.5458 138.645 89.9734 138.574 87.9241 138.433C85.8748 138.292 84.3378 138.221 83.3131 138.221C82.4298 138.221 81.5641 138.274 80.7161 138.38C79.7268 138.451 79.0201 138.574 78.5961 138.751C78.1721 138.928 77.9248 139.228 77.8541 139.652C77.3594 143.291 77.1121 145.977 77.1121 147.708C77.9248 147.814 78.7198 147.867 79.4971 147.867C80.4864 147.867 81.5464 147.814 82.6771 147.708C83.8078 147.602 84.5321 147.531 84.8501 147.496C86.7228 147.319 88.3304 147.231 89.6731 147.231C90.4504 147.231 91.0334 147.372 91.4221 147.655C91.8461 147.938 92.0581 148.326 92.0581 148.821C92.0581 149.598 91.8461 150.199 91.4221 150.623C91.0334 151.047 90.3268 151.365 89.3021 151.577C88.0654 151.824 86.5284 152.019 84.6911 152.16C82.8891 152.301 81.1224 152.372 79.3911 152.372C78.7904 152.372 77.9601 152.337 76.9001 152.266C76.7941 154.421 76.7411 156.418 76.7411 158.255C76.7411 160.764 78.4018 162.018 81.7231 162.018C83.4898 162.018 84.9561 161.894 86.1221 161.647C87.2881 161.4 88.6308 161.046 90.1501 160.587C91.5634 160.057 92.6941 159.792 93.5421 159.792ZM123.209 137.214C123.209 136.189 123.439 135.306 123.898 134.564C124.393 133.787 125.117 133.398 126.071 133.398C126.884 133.398 127.608 133.557 128.244 133.875C128.88 134.193 129.198 134.723 129.198 135.465C129.198 136.914 129.128 138.945 128.986 141.56C128.845 144.104 128.774 145.994 128.774 147.231C128.774 149.174 128.845 151.771 128.986 155.022C129.128 158.131 129.198 160.41 129.198 161.859C129.198 163.025 129.181 163.891 129.145 164.456C129.145 165.021 128.827 165.587 128.191 166.152C127.591 166.682 126.654 166.947 125.382 166.947C124.711 166.947 124.128 166.841 123.633 166.629C123.174 166.382 122.856 166.117 122.679 165.834C121.019 163.82 118.598 160.393 115.418 155.552C111.85 150.146 108.935 146.012 106.673 143.15C106.956 145.694 107.097 148.803 107.097 152.478C107.097 154.103 107.062 156.223 106.991 158.838C106.956 161.417 106.885 163.113 106.779 163.926C106.638 164.951 106.32 165.746 105.825 166.311C105.366 166.841 104.624 167.106 103.599 167.106C102.822 167.106 102.239 166.894 101.85 166.47C101.497 166.011 101.285 165.233 101.214 164.138C101.179 162.689 101.267 160.516 101.479 157.619C101.515 157.16 101.568 156.365 101.638 155.234C101.709 154.103 101.744 153.096 101.744 152.213C101.744 149.775 101.621 146.984 101.373 143.839C101.161 140.376 101.055 137.815 101.055 136.154C101.055 135.306 101.356 134.652 101.956 134.193C102.592 133.734 103.317 133.504 104.129 133.504C104.836 133.504 105.578 133.681 106.355 134.034C109.394 137.85 113.51 143.539 118.704 151.1L123.686 158.732C123.722 158.167 123.739 157.372 123.739 156.347C123.739 154.545 123.704 152.602 123.633 150.517C123.563 148.432 123.51 147.019 123.474 146.277C123.298 142.85 123.209 139.829 123.209 137.214Z" fill="#DB2777"/>
</svg>
