<?xml version="1.0" standalone="no"?><!DOCTYPE svg PUBLIC "-//W3C//DTD SVG 1.1//EN" "http://www.w3.org/Graphics/SVG/1.1/DTD/svg11.dtd"><svg t="1723794209989" class="icon" viewBox="0 0 1024 1024" version="1.1" xmlns="http://www.w3.org/2000/svg" p-id="6113" xmlns:xlink="http://www.w3.org/1999/xlink" width="200" height="200"><path d="M594.33 306.64c1.17 0 2.35-0.05 3.53-0.16l185.02-17.06c20.4-1.88 38.71-13.58 48.97-31.28 10.19-17.58 11.25-39.08 2.83-57.51l-78.14-171.1c-8.72-19.09-31.26-27.5-50.35-18.78-19.09 8.72-27.5 31.26-18.78 50.35l70.47 154.3-166.99 15.39c-20.9 1.93-36.28 20.43-34.35 41.33 1.81 19.71 18.38 34.52 37.79 34.52z" fill="#db2777" p-id="6114"></path><path d="M512 1016.7c62.79 0 123.71-12.3 181.09-36.57 55.4-23.43 105.15-56.97 147.86-99.68 42.71-42.71 76.25-92.46 99.68-147.86 24.27-57.38 36.57-118.3 36.57-181.09 0-27.19-2.37-54.45-7.04-81.02-3.63-20.67-23.33-34.48-44-30.85-20.67 3.63-34.48 23.33-30.85 44 3.91 22.24 5.89 45.07 5.89 67.87 0 214.61-174.59 389.2-389.2 389.2-214.61 0-389.2-174.59-389.2-389.2 0-214.61 174.59-389.2 389.2-389.2 89.76 0 177.35 31.28 246.61 88.09 16.23 13.31 40.17 10.94 53.48-5.29 13.31-16.23 10.94-40.17-5.29-53.48-40.7-33.37-86.3-59.39-135.55-77.34C620.29 95.71 566.71 86.3 512 86.3c-62.79 0-123.71 12.31-181.09 36.57-55.4 23.43-105.15 56.97-147.86 99.68-42.71 42.71-76.25 92.46-99.68 147.86C59.1 427.78 46.8 488.71 46.8 551.5c0 62.79 12.3 123.71 36.57 181.09 23.43 55.4 56.97 105.15 99.68 147.86 42.71 42.71 92.46 76.25 147.86 99.68 57.38 24.26 118.31 36.57 181.09 36.57z" fill="#db2777" p-id="6115"></path><path d="M478.15 719.24c0 4.43-0.54 8.29-1.65 11.8-1.24 3.93-3.09 7.39-5.49 10.28-2.83 3.39-6.16 5.87-9.95 7.44a26.244 26.244 0 0 1-10.14 2.05H272.89c-3.66 0-7.21-0.77-10.54-2.29-3.49-1.57-6.61-3.99-9.27-7.19-2.38-2.85-4.24-6.33-5.5-10.3-1.1-3.51-1.64-7.37-1.64-11.79 0-3.65 0.41-7.13 1.22-10.35 0.96-3.87 2.49-7.36 4.55-10.33 2.33-3.36 5.2-6.05 8.56-8.02 3.85-2.24 8.2-3.42 12.62-3.42h59.89V448.96l-46.91 28.59c-5.09 3.17-9.48 4.95-13.83 5.6-6.92 1.04-13.51-0.71-18.56-4.93-3.04-2.54-6.99-7.25-8.37-15.22-0.54-3.09-0.8-6.55-0.8-10.54 0-3.01 0.12-5.63 0.37-7.99 0.36-3.48 1.18-6.74 2.44-9.68 1.32-3.08 3.07-5.83 5.19-8.19 1.72-1.92 3.69-3.65 6.04-5.33l0.78-0.53 84.05-53.68c1.53-1 3.24-1.88 5.23-2.67 1.91-0.77 3.93-1.37 6.2-1.85 2.09-0.45 4.34-0.76 6.68-0.91 1.89-0.11 3.99-0.17 6.32-0.17 4.09 0 7.63 0.26 10.81 0.78 3.67 0.62 6.69 1.46 9.3 2.57 4.75 2.04 8.56 5.3 11.05 9.44 2.23 3.72 3.39 7.95 3.39 12.27v300.6h48.76c4.25 0 8.35 1.04 12.16 3.09 3.76 2.03 6.86 4.82 9.29 8.33 2.05 2.96 3.58 6.44 4.56 10.34 0.81 3.28 1.22 6.75 1.22 10.36zM764.58 475.97c-4.45-24.41-11.94-45.42-22.27-62.43-10.91-17.97-25.39-31.75-43.03-40.95-17.27-9.01-38.2-13.57-62.19-13.57-26.05 0-48.55 5.32-66.88 15.81-18.29 10.46-33.21 25.21-44.36 43.82-10.64 17.77-18.34 39.03-22.87 63.19-4.35 23.14-6.55 48.68-6.55 75.92 0 30.26 2.15 57.41 6.39 80.71 4.45 24.38 11.88 45.37 22.1 62.36 10.82 18.01 25.26 31.81 42.92 41.02 17.28 9 38.2 13.57 62.2 13.57 26.04 0 48.54-5.32 66.88-15.81 18.26-10.45 33.22-25.18 44.46-43.77 10.74-17.78 18.5-39.01 23.04-63.1 4.35-23.07 6.55-48.66 6.55-76.06 0-30.26-2.15-57.41-6.39-80.71z m-91.33 199.32c-4.64 5.03-10.09 8.85-16.65 11.66-6.57 2.82-14.69 4.25-24.12 4.25-11.75 0-21.59-2.25-29.27-6.68-7.59-4.39-13.77-11.2-18.89-20.83-5.72-10.74-10.02-25-12.76-42.39-2.92-18.41-4.4-40.79-4.4-66.52 0-18.37 1.05-36.36 3.13-53.47 1.94-16.03 5.7-30.35 11.17-42.57 5.04-11.23 11.74-19.9 20.49-26.52 7.88-5.96 18.88-8.98 32.7-8.98 7.98 0 15.12 1.02 21.23 3.03 5.67 1.87 10.59 4.69 15.02 8.6 4.57 4.05 8.61 9.37 12.01 15.8 3.75 7.12 6.93 15.79 9.47 25.76 2.65 10.46 4.64 22.63 5.9 36.19 1.3 13.94 1.96 29.77 1.96 47.04 0 12.33-0.44 24.58-1.31 36.4-0.85 11.44-2.37 22.4-4.54 32.58-2.08 9.78-4.99 18.91-8.62 27.14-3.35 7.56-7.56 14.12-12.52 19.51z" fill="#db2777" p-id="6116"></path></svg>