<?xml version="1.0" standalone="no"?><!DOCTYPE svg PUBLIC "-//W3C//DTD SVG 1.1//EN" "http://www.w3.org/Graphics/SVG/1.1/DTD/svg11.dtd"><svg class="icon" width="200px" height="189.63px" viewBox="0 0 1080 1024" version="1.1" xmlns="http://www.w3.org/2000/svg"><path fill="#db2777" d="M777.6 227.2c31.2 0 56.8-20.8 56.8-47.2V47.2c0-26.4-25.6-47.2-56.8-47.2-31.2 0-56.8 20.8-56.8 47.2v132.8c0 26.4 25.6 47.2 56.8 47.2z m-468.8 0c31.2 0 56.8-20.8 56.8-47.2V47.2c0-26.4-25.6-47.2-56.8-47.2s-56.8 20.8-56.8 47.2v132.8c0 26.4 24.8 47.2 56.8 47.2zM877.6 113.6v61.6c0 52.8-47.2 95.2-104 95.2s-104-43.2-104-95.2v-61.6H411.2v61.6c0 52.8-47.2 95.2-104 95.2s-104-43.2-104-95.2v-61.6H88c-34.4 0-61.6 25.6-61.6 56.8v796.8c0 31.2 27.2 56.8 61.6 56.8h904c34.4 0 61.6-25.6 61.6-56.8V170.4c0-31.2-27.2-56.8-61.6-56.8h-114.4z m72.8 853.6H148c-19.2 0-35.2-13.6-35.2-30.4V372c0-16.8 16-30.4 35.2-30.4h802.4c19.2 0 35.2 13.6 35.2 30.4V936c-0.8 17.6-16 31.2-35.2 31.2zM200.8 796.8h76l24-70.4h128l22.4 70.4h78.4l-120-341.6H325.6L200.8 796.8z m165.6-264.8l42.4 134.4h-88l45.6-134.4z m491.2 60.8c10.4-12 15.2-28.8 15.2-50.4 0-22.4-7.2-41.6-21.6-56.8-18.4-20-47.2-30.4-84.8-30.4H597.6v341.6H744c32.8 0 57.6-3.2 74.4-8.8 12.8-4 24-12 35.2-22.4 9.6-9.6 17.6-20 22.4-32 4.8-12 7.2-24.8 7.2-38.4 0-19.2-4-35.2-11.2-48.8-8-15.2-22.4-26.4-42.4-33.6 12.8-6.4 21.6-12.8 28-20z m-108-78.4c17.6 0 30.4 3.2 40 8 9.6 5.6 13.6 15.2 13.6 28 0.8 12-4.8 23.2-15.2 29.6-8.8 5.6-20.8 8.8-36.8 8.8H666.4v-74.4h83.2z m6.4 223.2H666.4V646.4h92c15.2 0 27.2 3.2 37.6 10.4 9.6 7.2 15.2 17.6 15.2 31.2 0.8 16.8-4 29.6-13.6 37.6-9.6 7.2-24 12-41.6 12z" /></svg>